<svg width="203" height="32" viewBox="0 0 203 32" fill="none" xmlns="http://www.w3.org/2000/svg">
<path d="M36.9268 23.2888C37.788 23.6389 38.7421 23.8313 39.7762 23.8846V29.1564C37.9032 29.1023 36.1656 28.7924 34.564 28.2181C32.7983 27.5851 31.2744 26.6786 29.9873 25.4968C28.7019 24.3175 27.6998 22.8861 26.981 21.2074C26.3191 19.6586 25.9661 17.9436 25.9133 16.0632H32.0483C32.0948 17.0935 32.2765 18.0511 32.615 18.9252C33.0064 19.9353 33.5675 20.8125 34.2983 21.5537C35.0298 22.2964 35.9063 22.8753 36.9268 23.2888ZM43.7707 7.87896C42.9095 7.52963 41.9554 7.33641 40.9221 7.28309V2.01136C42.7942 2.06392 44.5319 2.37538 46.1343 2.94962C47.8992 3.5826 49.4239 4.48917 50.7101 5.66934C51.9964 6.85105 52.9977 8.28086 53.7172 9.95952C54.3792 11.5091 54.7313 13.2249 54.7842 15.1037H48.6491C48.6019 14.0944 48.4194 13.1437 48.0824 12.2603C47.6911 11.2386 47.13 10.3568 46.3992 9.61405C45.6677 8.87133 44.792 8.29322 43.7707 7.87896ZM48.0823 18.9248C48.4201 18.0507 48.6033 17.0939 48.649 16.0636H54.784C54.732 17.9425 54.379 19.659 53.7163 21.2071C52.9983 22.8865 51.997 24.3171 50.7108 25.498C49.4246 26.6782 47.899 27.5855 46.1341 28.2177C44.5325 28.7927 42.7957 29.1034 40.9235 29.156V23.885C41.9561 23.8309 42.9085 23.6385 43.7714 23.2884C44.7927 22.8749 45.6675 22.296 46.3991 21.5533C47.1314 20.8121 47.6901 19.9349 48.0823 18.9248ZM32.6152 12.261C32.2774 13.1437 32.0957 14.0943 32.0493 15.1036H25.9135C25.9655 13.2248 26.3193 11.5075 26.982 9.95944C27.7 8.28078 28.7012 6.85098 29.9875 5.67003C31.2729 4.48909 32.7985 3.58252 34.5642 2.95032C36.1657 2.37608 37.9026 2.06461 39.7747 2.01051V7.28301C38.7414 7.33711 37.7898 7.53032 36.9269 7.87966C35.9056 8.29392 35.0292 8.87048 34.2984 9.61397C33.5669 10.3567 33.0066 11.2385 32.6152 12.261ZM16.9036 23.1786C17.8352 22.6924 18.6052 22.0108 19.2103 21.1336L24.1255 24.6756C22.9914 26.2097 21.5555 27.3412 19.8146 28.0723C18.0753 28.8027 16.2865 29.1667 14.4456 29.1667C12.3525 29.1667 10.4244 28.8506 8.65949 28.2184C6.89461 27.5854 5.36986 26.6781 4.08362 25.4972C2.79819 24.317 1.79609 22.8872 1.07893 21.207C0.358577 19.5268 0 17.6533 0 15.5836C0 13.5146 0.358577 11.6404 1.07893 9.96022C1.79609 8.28078 2.79819 6.85098 4.08362 5.67003C5.36986 4.48987 6.89461 3.58329 8.65949 2.95032C10.4244 2.31657 12.3525 2.00046 14.4456 2.00046C15.2011 2.00046 15.9895 2.06848 16.8083 2.20064C17.6279 2.33512 18.4355 2.54765 19.2287 2.8398C20.0235 3.13271 20.7863 3.52147 21.5163 4.00914C22.2478 4.49528 22.9025 5.09193 23.4828 5.79756L18.9462 9.3767C18.3659 8.69503 17.6535 8.17103 16.8083 7.80624C15.9639 7.44067 14.9874 7.2575 13.8781 7.2575C12.7687 7.2575 11.7418 7.4654 10.7965 7.87889C9.85048 8.29392 9.03167 8.87125 8.33773 9.61397C7.64459 10.3559 7.10352 11.2385 6.71292 12.261C6.32073 13.2835 6.12543 14.3918 6.12543 15.5836C6.12543 16.8016 6.32073 17.9153 6.71292 18.9247C7.10352 19.9348 7.63898 20.8113 8.31932 21.554C9.00046 22.2967 9.79925 22.874 10.7205 23.2883C11.6402 23.7026 12.6303 23.9089 13.69 23.9089C14.8994 23.9089 15.9703 23.6655 16.9036 23.1786ZM171.661 14.8899C172.581 15.4262 173.345 16.1442 173.95 17.0439C174.555 17.9458 174.857 19.1499 174.857 20.6593C174.857 22.0961 174.58 23.3497 174.025 24.4201C173.47 25.4921 172.72 26.3801 171.776 27.0857C170.83 27.7921 169.732 28.3153 168.485 28.6554C167.238 28.997 165.919 29.1678 164.533 29.1678C162.795 29.1678 161.18 28.912 159.693 28.3996C158.205 27.8895 156.82 27.0617 155.533 25.9179L159.731 21.4631C160.337 22.2422 161.099 22.845 162.019 23.2701C162.939 23.6967 163.89 23.9092 164.874 23.9092C165.352 23.9092 165.839 23.8544 166.329 23.7446C166.821 23.6341 167.262 23.471 167.653 23.2523C168.044 23.0328 168.36 22.753 168.599 22.4122C168.838 22.0713 168.958 21.6687 168.958 21.2073C168.958 20.4282 168.649 19.8138 168.032 19.3632C167.413 18.9126 166.639 18.5301 165.706 18.2132C164.774 17.8963 163.764 17.5794 162.68 17.2633C161.597 16.9472 160.587 16.5214 159.655 15.985C158.722 15.4502 157.947 14.7438 157.329 13.8674C156.712 12.9909 156.403 11.8347 156.403 10.3987C156.403 9.01145 156.687 7.79418 157.254 6.74695C157.822 5.70049 158.577 4.82483 159.523 4.11765C160.469 3.41203 161.558 2.88261 162.795 2.53019C164.03 2.17699 165.303 2 166.613 2C168.125 2 169.588 2.20713 171 2.62139C172.411 3.0341 173.685 3.7289 174.819 4.70194L170.774 8.97435C170.294 8.39006 169.644 7.9588 168.826 7.67825C168.007 7.39847 167.231 7.25859 166.5 7.25859C166.072 7.25859 165.63 7.30728 165.177 7.40388C164.722 7.50204 164.294 7.65507 163.89 7.86065C163.487 8.06778 163.159 8.34214 162.907 8.6822C162.655 9.02304 162.529 9.4373 162.529 9.92343C162.529 10.704 162.832 11.2991 163.437 11.7134C164.042 12.1269 164.804 12.4793 165.726 12.7722C166.645 13.0644 167.635 13.3565 168.693 13.6486C169.752 13.94 170.742 14.355 171.661 14.8899ZM138.327 2.65755H143.205L154.853 28.5099H148.198L145.89 23.0326H135.492L133.259 28.5099H126.756L138.327 2.65755ZM137.344 18.213H143.887L140.596 10.1791L137.344 18.213ZM120.819 5.5963C122.256 6.63117 123.396 7.97673 124.241 9.63221C125.085 11.2877 125.508 13.2956 125.508 15.6567C125.508 17.7504 125.098 19.5952 124.279 21.1889C123.46 22.7841 122.356 24.1219 120.97 25.2047C119.584 26.2883 117.983 27.1106 116.167 27.6694C114.354 28.2305 112.449 28.5095 110.458 28.5095H100.814V2.65786H109.663C111.805 2.65786 113.842 2.88895 115.771 3.35035C117.699 3.81485 119.382 4.56298 120.819 5.5963ZM118.645 19.0705C119.137 18.0611 119.382 16.8261 119.382 15.3638C119.382 14.0986 119.137 12.998 118.645 12.0606C118.152 11.1238 117.491 10.351 116.66 9.74273C115.827 9.13372 114.851 8.67772 113.729 8.37167C112.606 8.0687 111.427 7.9149 110.193 7.9149H106.714V23.2524H109.778C111.138 23.2524 112.405 23.118 113.578 22.8506C114.751 22.5824 115.764 22.138 116.622 21.5166C117.478 20.8967 118.152 20.0814 118.645 19.0705ZM196.6 2.65755H202.5V28.5099H196.6V17.3366H185.143V28.5099H179.243V2.65755H185.143V12.2975H196.6V2.65755ZM89.4707 20.6222V2.65771H95.3696V28.5101H87.6546L75.9704 10.1074H75.8952V28.5101H69.9955V2.65771H78.0122L89.3947 20.6222H89.4707ZM58.7271 28.5101V2.65771H64.626V28.5101H58.7271Z" fill="white"/>
</svg>
