<svg width="640" height="669" viewBox="0 0 640 669" fill="none" xmlns="http://www.w3.org/2000/svg">
<rect x="-254" width="830" height="669" fill="#E2E4EB"/>
<rect x="-143" y="64" width="783" height="541" fill="#091637"/>
<path d="M188.669 384.728C182.429 384.728 177.005 383.576 172.397 381.272C167.789 378.872 163.997 375.464 161.021 371.048C158.045 366.632 155.837 361.208 154.397 354.776C152.957 348.344 152.237 341 152.237 332.744C152.237 324.584 152.957 317.288 154.397 310.856C155.837 304.328 158.045 298.856 161.021 294.44C163.997 290.024 167.789 286.664 172.397 284.36C177.005 281.96 182.429 280.76 188.669 280.76C201.149 280.76 210.317 285.32 216.173 294.44C222.125 303.56 225.101 316.328 225.101 332.744C225.101 349.16 222.125 361.928 216.173 371.048C210.317 380.168 201.149 384.728 188.669 384.728ZM188.669 370.904C192.125 370.904 195.053 370.232 197.453 368.888C199.949 367.448 201.965 365.432 203.501 362.84C205.037 360.248 206.141 357.176 206.813 353.624C207.485 349.976 207.821 345.944 207.821 341.528V323.96C207.821 319.544 207.485 315.56 206.813 312.008C206.141 308.36 205.037 305.24 203.501 302.648C201.965 300.056 199.949 298.088 197.453 296.744C195.053 295.304 192.125 294.584 188.669 294.584C185.213 294.584 182.237 295.304 179.741 296.744C177.341 298.088 175.373 300.056 173.837 302.648C172.301 305.24 171.197 308.36 170.525 312.008C169.853 315.56 169.517 319.544 169.517 323.96V341.528C169.517 345.944 169.853 349.976 170.525 353.624C171.197 357.176 172.301 360.248 173.837 362.84C175.373 365.432 177.341 367.448 179.741 368.888C182.237 370.232 185.213 370.904 188.669 370.904ZM297.812 383C292.34 383 288.212 381.608 285.428 378.824C282.644 375.944 281.252 371.912 281.252 366.728V320.936H269.588V308.12H275.924C278.516 308.12 280.292 307.544 281.252 306.392C282.308 305.24 282.836 303.368 282.836 300.776V287.672H296.948V308.12H312.644V320.936H296.948V370.184H311.492V383H297.812ZM358.483 384.728C353.299 384.728 348.547 383.816 344.227 381.992C340.003 380.168 336.403 377.576 333.427 374.216C330.451 370.76 328.147 366.632 326.515 361.832C324.883 356.936 324.067 351.512 324.067 345.56C324.067 339.608 324.883 334.232 326.515 329.432C328.147 324.536 330.451 320.408 333.427 317.048C336.403 313.592 340.003 310.952 344.227 309.128C348.547 307.304 353.299 306.392 358.483 306.392C363.667 306.392 368.371 307.304 372.595 309.128C376.915 310.952 380.563 313.592 383.539 317.048C386.515 320.408 388.819 324.536 390.451 329.432C392.083 334.232 392.899 339.608 392.899 345.56C392.899 351.512 392.083 356.936 390.451 361.832C388.819 366.632 386.515 370.76 383.539 374.216C380.563 377.576 376.915 380.168 372.595 381.992C368.371 383.816 363.667 384.728 358.483 384.728ZM358.483 371.768C363.859 371.768 368.179 370.136 371.443 366.872C374.707 363.512 376.339 358.52 376.339 351.896V339.224C376.339 332.6 374.707 327.656 371.443 324.392C368.179 321.032 363.859 319.352 358.483 319.352C353.107 319.352 348.787 321.032 345.523 324.392C342.259 327.656 340.627 332.6 340.627 339.224V351.896C340.627 358.52 342.259 363.512 345.523 366.872C348.787 370.136 353.107 371.768 358.483 371.768ZM445.86 383V369.464H474.084V294.296H472.932L449.604 319.208L439.668 310.28L465.3 282.488H490.068V369.464H514.547V383H445.86Z" fill="url(#paint0_linear)"/>
<defs>
<linearGradient id="paint0_linear" x1="500.274" y1="332.585" x2="144.975" y2="336.45" gradientUnits="userSpaceOnUse">
<stop stop-color="#E2E4EB"/>
<stop offset="0.317708" stop-color="#AEB1B7"/>
<stop offset="1" stop-color="#091637"/>
</linearGradient>
</defs>
</svg>
