<svg width="640" height="669" viewBox="0 0 640 669" fill="none" xmlns="http://www.w3.org/2000/svg">
<rect x="64" width="830" height="669" fill="#E2E4EB"/>
<rect y="64" width="639" height="541" fill="#091637"/>
<path d="M279 360C279 340.67 294.67 325 314 325C328.106 325 340.411 333.715 345.951 345.738" stroke="#BBBDC1" stroke-width="6" stroke-miterlimit="10"/>
<path d="M348.73 325L345.951 345.738L325.215 342.959" stroke="#BBBDC1" stroke-width="6" stroke-miterlimit="10" stroke-linecap="square"/>
<path d="M349 360C349 379.33 333.33 395 314 395C299.894 395 287.589 386.285 282.049 374.262" stroke="#BBBDC1" stroke-width="6" stroke-miterlimit="10"/>
<path d="M279.27 395L282.049 374.263L302.785 377.041" stroke="#BBBDC1" stroke-width="6" stroke-miterlimit="10" stroke-linecap="square"/>
<g clip-path="url(#clip0)">
<path d="M523 327L547 351" stroke="#BBBDC1" stroke-width="6" stroke-miterlimit="10"/>
<path d="M512 331.773C504.708 328.508 496.506 328.112 488.95 330.661C481.393 333.209 475.006 338.524 471 345.6L484.979 360" stroke="#BBBDC1" stroke-width="6" stroke-miterlimit="10"/>
<path d="M542.151 361C545.469 368.449 545.905 376.85 543.374 384.598C540.844 392.345 535.524 398.897 528.432 403L514 388.685" stroke="#BBBDC1" stroke-width="6" stroke-miterlimit="10"/>
<path d="M502.692 395L479 371.308C479 371.308 499.237 320.969 556 318C552.792 374.516 502.692 395 502.692 395Z" stroke="#BBBDC1" stroke-width="6" stroke-miterlimit="10" stroke-linecap="square"/>
<path d="M515.5 368C520.747 368 525 363.747 525 358.5C525 353.253 520.747 349 515.5 349C510.253 349 506 353.253 506 358.5C506 363.747 510.253 368 515.5 368Z" stroke="#BBBDC1" stroke-width="6" stroke-miterlimit="10" stroke-linecap="square"/>
<path d="M470.904 389.762C472.672 387.993 475.07 387 477.571 387C480.072 387 482.47 387.993 484.238 389.762C486.007 391.53 487 393.928 487 396.429C487 398.93 486.007 401.328 484.238 403.096C479.524 407.81 465 409 465 409C465 409 466.19 394.476 470.904 389.762Z" stroke="#BBBDC1" stroke-width="6" stroke-miterlimit="10" stroke-linecap="square"/>
</g>
<path d="M146.812 326.875V386.5" stroke="#BBBDC1" stroke-width="6" stroke-miterlimit="10" stroke-linecap="square"/>
<path d="M130.25 326.875H163.375" stroke="#BBBDC1" stroke-width="6" stroke-miterlimit="10" stroke-linecap="square"/>
<path d="M130.25 386.5H163.375" stroke="#BBBDC1" stroke-width="6" stroke-miterlimit="10"/>
<path d="M163.375 386.5L146.812 406.375L130.25 386.5V310.312H163.375V386.5Z" stroke="#BBBDC1" stroke-width="6" stroke-miterlimit="10" stroke-linecap="square"/>
<path d="M70.625 356.688H85.5312" stroke="#BBBDC1" stroke-width="6" stroke-miterlimit="10"/>
<path d="M70.625 369.938H82.2188" stroke="#BBBDC1" stroke-width="6" stroke-miterlimit="10"/>
<path d="M70.625 396.438H82.2188" stroke="#BBBDC1" stroke-width="6" stroke-miterlimit="10"/>
<path d="M70.625 330.188H85.5312" stroke="#BBBDC1" stroke-width="6" stroke-miterlimit="10"/>
<path d="M70.625 343.438H82.2188" stroke="#BBBDC1" stroke-width="6" stroke-miterlimit="10"/>
<path d="M70.625 383.188H85.5312" stroke="#BBBDC1" stroke-width="6" stroke-miterlimit="10"/>
<path d="M97.125 326.875C98.9544 326.875 100.438 325.392 100.438 323.562C100.438 321.733 98.9544 320.25 97.125 320.25C95.2956 320.25 93.8125 321.733 93.8125 323.562C93.8125 325.392 95.2956 326.875 97.125 326.875Z" stroke="#BBBDC1" stroke-width="6" stroke-miterlimit="10" stroke-linecap="square"/>
<path d="M110.375 310.312H70.625V409.688H110.375V310.312Z" stroke="#BBBDC1" stroke-width="6" stroke-miterlimit="10" stroke-linecap="square"/>
<defs>
<clipPath id="clip0">
<rect width="100" height="100" fill="white" transform="translate(459 312)"/>
</clipPath>
</defs>
</svg>
