<svg width="640" height="669" viewBox="0 0 640 669" fill="none" xmlns="http://www.w3.org/2000/svg">
<rect x="64" width="830" height="669" fill="#E2E4EB"/>
<rect y="64" width="639" height="541" fill="#091637"/>
<g clip-path="url(#clip0)">
<path d="M283.243 370.171V315H329.537M283.243 370.171L268 357.911M283.243 370.171L298.486 357.911" stroke="#BBBDC1" stroke-width="6"/>
<path d="M345.294 347V403.232H299M345.294 347L360.537 359.496M345.294 347L330.051 359.496" stroke="#BBBDC1" stroke-width="6"/>
</g>
<g clip-path="url(#clip1)">
<path d="M522.328 321.078L549.81 348.559" stroke="#BBBDC1" stroke-width="6" stroke-miterlimit="10"/>
<path d="M511.552 327.057C503.288 323.465 493.994 323.03 485.43 325.834C476.867 328.637 469.63 334.484 465.09 342.267L480.931 358.109" stroke="#BBBDC1" stroke-width="6" stroke-miterlimit="10"/>
<path d="M543.852 359.242C547.51 367.519 547.99 376.854 545.2 385.463C542.411 394.072 536.548 401.351 528.731 405.911L512.824 390.004" stroke="#BBBDC1" stroke-width="6" stroke-miterlimit="10"/>
<path d="M500.179 396.962L474.038 370.821C474.038 370.821 496.367 315.276 559 312C555.46 374.36 500.179 396.962 500.179 396.962Z" stroke="#BBBDC1" stroke-width="6" stroke-miterlimit="10" stroke-linecap="square"/>
<path d="M514.172 367.173C519.886 367.173 524.517 362.541 524.517 356.828C524.517 351.114 519.886 346.483 514.172 346.483C508.459 346.483 503.828 351.114 503.828 356.828C503.828 362.541 508.459 367.173 514.172 367.173Z" stroke="#BBBDC1" stroke-width="6" stroke-miterlimit="10" stroke-linecap="square"/>
<path d="M465.478 390.892C467.418 388.951 470.049 387.861 472.793 387.861C475.537 387.861 478.168 388.951 480.109 390.892C482.049 392.832 483.139 395.463 483.139 398.207C483.139 400.951 482.049 403.582 480.109 405.523C474.936 410.695 459 412 459 412C459 412 460.305 396.064 465.478 390.892Z" stroke="#BBBDC1" stroke-width="6" stroke-miterlimit="10" stroke-linecap="square"/>
</g>
<path d="M146.812 326.875V386.5" stroke="#BBBDC1" stroke-width="6" stroke-miterlimit="10" stroke-linecap="square"/>
<path d="M130.25 326.875H163.375" stroke="#BBBDC1" stroke-width="6" stroke-miterlimit="10" stroke-linecap="square"/>
<path d="M130.25 386.5H163.375" stroke="#BBBDC1" stroke-width="6" stroke-miterlimit="10"/>
<path d="M163.375 386.5L146.812 406.375L130.25 386.5V310.312H163.375V386.5Z" stroke="#BBBDC1" stroke-width="6" stroke-miterlimit="10" stroke-linecap="square"/>
<path d="M70.625 356.688H85.5312" stroke="#BBBDC1" stroke-width="6" stroke-miterlimit="10"/>
<path d="M70.625 369.938H82.2188" stroke="#BBBDC1" stroke-width="6" stroke-miterlimit="10"/>
<path d="M70.625 396.438H82.2188" stroke="#BBBDC1" stroke-width="6" stroke-miterlimit="10"/>
<path d="M70.625 330.188H85.5312" stroke="#BBBDC1" stroke-width="6" stroke-miterlimit="10"/>
<path d="M70.625 343.438H82.2188" stroke="#BBBDC1" stroke-width="6" stroke-miterlimit="10"/>
<path d="M70.625 383.188H85.5312" stroke="#BBBDC1" stroke-width="6" stroke-miterlimit="10"/>
<path d="M97.125 326.875C98.9544 326.875 100.438 325.392 100.438 323.562C100.438 321.733 98.9544 320.25 97.125 320.25C95.2956 320.25 93.8125 321.733 93.8125 323.562C93.8125 325.392 95.2956 326.875 97.125 326.875Z" stroke="#BBBDC1" stroke-width="6" stroke-miterlimit="10" stroke-linecap="square"/>
<path d="M110.375 310.312H70.625V409.688H110.375V310.312Z" stroke="#BBBDC1" stroke-width="6" stroke-miterlimit="10" stroke-linecap="square"/>
<defs>
<clipPath id="clip0">
<rect width="92.5366" height="96.2317" fill="white" transform="translate(268 310)"/>
</clipPath>
<clipPath id="clip1">
<rect width="100" height="100" fill="white" transform="translate(459 312)"/>
</clipPath>
</defs>
</svg>
