<svg width="145" height="32" viewBox="0 0 145 32" fill="none" xmlns="http://www.w3.org/2000/svg">
<g clip-path="url(#clip0)">
<path d="M39.0209 1C46.9562 1 53.4198 7.62905 53.4198 15.7675C53.4198 23.9059 46.9552 30.5389 39.0209 30.5389C35.2015 30.5389 31.5386 28.9828 28.8379 26.213C26.1373 23.4432 24.62 19.6865 24.62 15.7694C24.62 11.8523 26.1373 8.09567 28.8379 5.32586C31.5386 2.55606 35.2015 1 39.0209 1V1ZM39.0209 5.92216C37.1223 5.92177 35.2663 6.49876 33.6875 7.58016C32.1087 8.66157 30.878 10.1988 30.151 11.9976C29.424 13.7963 29.2334 15.7757 29.6033 17.6855C29.9732 19.5954 30.8869 21.3498 32.229 22.7271C33.571 24.1043 35.2812 25.0425 37.1431 25.423C39.005 25.8035 40.9352 25.6092 42.6894 24.8646C44.4437 24.1201 45.9434 22.8589 46.9987 21.2403C48.0541 19.6217 48.6178 17.7185 48.6185 15.7714C48.6202 14.4782 48.3731 13.1974 47.8913 12.0024C47.4096 10.8073 46.7027 9.72146 45.8112 8.807C44.9196 7.89255 43.8609 7.16747 42.6957 6.67329C41.5306 6.1791 40.2818 5.92552 39.0209 5.92707V5.92216Z" fill="white"/>
<path d="M82.4383 1H87.4925L74.6132 30.5123L69.8848 19.9733L65.3202 30.5123L52.0328 1H57.0457L65.3193 18.8167L67.316 14.2031L61.4561 1H66.469L74.6132 18.8167L82.4383 1Z" fill="white"/>
<path d="M116.884 30.5683L109.308 18.1082H106.57V30.5683H101.787V13.2459H106.325L98.7546 1H111.306C111.306 1 120.871 1 120.871 9.54917C120.871 14.7475 117.356 16.8022 114.576 17.5991L122.479 30.5624L116.884 30.5683ZM111.924 13.2037C113.192 13.0779 116.094 12.449 116.094 9.55605C116.094 5.9084 111.311 5.9084 111.311 5.9084H107.469L111.924 13.2037Z" fill="white"/>
<path d="M25.6034 30.5408L12.8017 1L0 30.5408H5.60128L7.55301 25.6786H16.4771L14.6835 20.8154H9.53731L12.8017 12.5905L20.0031 30.5408H25.6034Z" fill="white"/>
<path d="M49.9886 30.6533L32.3818 11H38.1881L55.7364 30.6533H49.9886Z" fill="white"/>
<path d="M95.4747 1H90.7338V30.5172H95.4747V1Z" fill="white"/>
<path d="M142 5.92805H130.798V10.9485H140.313V15.8716H130.798V25.6216H142V30.5447H125.999V1H142V5.92805Z" fill="white"/>
</g>
<defs>
<clipPath id="clip0">
<rect width="145" height="32" fill="white"/>
</clipPath>
</defs>
</svg>
