<svg width="106" height="64" viewBox="0 0 106 64" fill="none" xmlns="http://www.w3.org/2000/svg">
<path d="M28 7.07999H3.20833V18.84" stroke="#091637" stroke-width="6"/>
<path d="M28 56.92H3.20833V25.56" stroke="#091637" stroke-width="6"/>
<path d="M28 19.12H15.75V47.4" stroke="#091637" stroke-width="6"/>
<path d="M50.354 19.216C49.526 19.216 48.776 19.084 48.104 18.82C47.444 18.544 46.874 18.136 46.394 17.596C45.926 17.056 45.566 16.39 45.314 15.598C45.062 14.794 44.936 13.864 44.936 12.808C44.936 11.752 45.062 10.816 45.314 10C45.566 9.172 45.926 8.482 46.394 7.93C46.874 7.366 47.444 6.94 48.104 6.652C48.776 6.364 49.526 6.22 50.354 6.22C51.482 6.22 52.418 6.46 53.162 6.94C53.906 7.42 54.5 8.146 54.944 9.118L52.91 10.198C52.73 9.634 52.436 9.184 52.028 8.848C51.62 8.5 51.062 8.326 50.354 8.326C49.466 8.326 48.758 8.626 48.23 9.226C47.714 9.826 47.456 10.666 47.456 11.746V13.726C47.456 14.818 47.714 15.658 48.23 16.246C48.758 16.822 49.466 17.11 50.354 17.11C51.062 17.11 51.638 16.918 52.082 16.534C52.538 16.15 52.868 15.676 53.072 15.112L54.998 16.246C54.542 17.182 53.936 17.914 53.18 18.442C52.424 18.958 51.482 19.216 50.354 19.216ZM60.6068 19.216C59.9348 19.216 59.3288 19.102 58.7888 18.874C58.2608 18.646 57.8048 18.316 57.4208 17.884C57.0488 17.452 56.7608 16.936 56.5568 16.336C56.3528 15.724 56.2508 15.04 56.2508 14.284C56.2508 13.528 56.3528 12.85 56.5568 12.25C56.7608 11.65 57.0488 11.14 57.4208 10.72C57.8048 10.288 58.2608 9.958 58.7888 9.73C59.3288 9.502 59.9348 9.388 60.6068 9.388C61.2788 9.388 61.8848 9.502 62.4248 9.73C62.9648 9.958 63.4208 10.288 63.7928 10.72C64.1768 11.14 64.4708 11.65 64.6748 12.25C64.8788 12.85 64.9808 13.528 64.9808 14.284C64.9808 15.04 64.8788 15.724 64.6748 16.336C64.4708 16.936 64.1768 17.452 63.7928 17.884C63.4208 18.316 62.9648 18.646 62.4248 18.874C61.8848 19.102 61.2788 19.216 60.6068 19.216ZM60.6068 17.362C61.2188 17.362 61.6988 17.176 62.0468 16.804C62.3948 16.432 62.5688 15.886 62.5688 15.166V13.42C62.5688 12.712 62.3948 12.172 62.0468 11.8C61.6988 11.428 61.2188 11.242 60.6068 11.242C60.0068 11.242 59.5328 11.428 59.1848 11.8C58.8368 12.172 58.6628 12.712 58.6628 13.42V15.166C58.6628 15.886 58.8368 16.432 59.1848 16.804C59.5328 17.176 60.0068 17.362 60.6068 17.362ZM45.476 39V26.436H53.558V28.542H47.852V31.584H52.82V33.69H47.852V39H45.476ZM58.9018 39.216C58.2298 39.216 57.6238 39.102 57.0838 38.874C56.5558 38.646 56.0998 38.316 55.7158 37.884C55.3438 37.452 55.0558 36.936 54.8518 36.336C54.6478 35.724 54.5458 35.04 54.5458 34.284C54.5458 33.528 54.6478 32.85 54.8518 32.25C55.0558 31.65 55.3438 31.14 55.7158 30.72C56.0998 30.288 56.5558 29.958 57.0838 29.73C57.6238 29.502 58.2298 29.388 58.9018 29.388C59.5738 29.388 60.1798 29.502 60.7198 29.73C61.2598 29.958 61.7158 30.288 62.0878 30.72C62.4718 31.14 62.7658 31.65 62.9698 32.25C63.1738 32.85 63.2758 33.528 63.2758 34.284C63.2758 35.04 63.1738 35.724 62.9698 36.336C62.7658 36.936 62.4718 37.452 62.0878 37.884C61.7158 38.316 61.2598 38.646 60.7198 38.874C60.1798 39.102 59.5738 39.216 58.9018 39.216ZM58.9018 37.362C59.5138 37.362 59.9938 37.176 60.3418 36.804C60.6898 36.432 60.8638 35.886 60.8638 35.166V33.42C60.8638 32.712 60.6898 32.172 60.3418 31.8C59.9938 31.428 59.5138 31.242 58.9018 31.242C58.3018 31.242 57.8278 31.428 57.4798 31.8C57.1318 32.172 56.9578 32.712 56.9578 33.42V35.166C56.9578 35.886 57.1318 36.432 57.4798 36.804C57.8278 37.176 58.3018 37.362 58.9018 37.362ZM70.9343 37.434H70.8443C70.7603 37.674 70.6463 37.902 70.5023 38.118C70.3703 38.322 70.1963 38.508 69.9803 38.676C69.7763 38.844 69.5243 38.976 69.2243 39.072C68.9363 39.168 68.6003 39.216 68.2163 39.216C67.2443 39.216 66.5003 38.898 65.9843 38.262C65.4683 37.626 65.2103 36.72 65.2103 35.544V29.604H67.5143V35.31C67.5143 35.958 67.6403 36.456 67.8923 36.804C68.1443 37.14 68.5463 37.308 69.0983 37.308C69.3263 37.308 69.5483 37.278 69.7643 37.218C69.9923 37.158 70.1903 37.068 70.3583 36.948C70.5263 36.816 70.6643 36.66 70.7723 36.48C70.8803 36.288 70.9343 36.066 70.9343 35.814V29.604H73.2383V39H70.9343V37.434ZM75.9004 39V29.604H78.2044V31.17H78.2944C78.4864 30.666 78.7864 30.246 79.1944 29.91C79.6144 29.562 80.1904 29.388 80.9224 29.388C81.8944 29.388 82.6384 29.706 83.1544 30.342C83.6704 30.978 83.9284 31.884 83.9284 33.06V39H81.6244V33.294C81.6244 32.622 81.5044 32.118 81.2644 31.782C81.0244 31.446 80.6284 31.278 80.0764 31.278C79.8364 31.278 79.6024 31.314 79.3744 31.386C79.1584 31.446 78.9604 31.542 78.7804 31.674C78.6124 31.794 78.4744 31.95 78.3664 32.142C78.2584 32.322 78.2044 32.538 78.2044 32.79V39H75.9004ZM92.3144 37.434H92.2244C92.0564 37.974 91.7384 38.406 91.2704 38.73C90.8024 39.054 90.2564 39.216 89.6324 39.216C88.4444 39.216 87.5324 38.79 86.8964 37.938C86.2724 37.086 85.9604 35.868 85.9604 34.284C85.9604 32.712 86.2724 31.506 86.8964 30.666C87.5324 29.814 88.4444 29.388 89.6324 29.388C90.2564 29.388 90.8024 29.55 91.2704 29.874C91.7384 30.186 92.0564 30.612 92.2244 31.152H92.3144V25.68H94.6184V39H92.3144V37.434ZM90.3704 37.308C90.9224 37.308 91.3844 37.176 91.7564 36.912C92.1284 36.648 92.3144 36.27 92.3144 35.778V32.79C92.3144 32.334 92.1284 31.968 91.7564 31.692C91.3844 31.416 90.9224 31.278 90.3704 31.278C89.7704 31.278 89.2844 31.482 88.9124 31.89C88.5524 32.286 88.3724 32.82 88.3724 33.492V35.112C88.3724 35.784 88.5524 36.318 88.9124 36.714C89.2844 37.11 89.7704 37.308 90.3704 37.308ZM45.476 59V46.436H47.852V56.894H52.802V59H45.476ZM61.6835 59C61.1795 59 60.7775 58.856 60.4775 58.568C60.1895 58.268 60.0095 57.872 59.9375 57.38H59.8295C59.6735 57.992 59.3555 58.454 58.8755 58.766C58.3955 59.066 57.8015 59.216 57.0935 59.216C56.1335 59.216 55.3955 58.964 54.8795 58.46C54.3635 57.956 54.1055 57.284 54.1055 56.444C54.1055 55.472 54.4535 54.752 55.1495 54.284C55.8455 53.804 56.8355 53.564 58.1195 53.564H59.7215V52.88C59.7215 52.352 59.5835 51.944 59.3075 51.656C59.0315 51.368 58.5875 51.224 57.9755 51.224C57.4355 51.224 56.9975 51.344 56.6615 51.584C56.3375 51.812 56.0615 52.088 55.8335 52.412L54.4655 51.188C54.8135 50.648 55.2755 50.216 55.8515 49.892C56.4275 49.556 57.1895 49.388 58.1375 49.388C59.4095 49.388 60.3755 49.676 61.0355 50.252C61.6955 50.828 62.0255 51.656 62.0255 52.736V57.164H62.9615V59H61.6835ZM57.8675 57.542C58.3835 57.542 58.8215 57.428 59.1815 57.2C59.5415 56.972 59.7215 56.636 59.7215 56.192V54.95H58.2455C57.0455 54.95 56.4455 55.334 56.4455 56.102V56.408C56.4455 56.792 56.5655 57.08 56.8055 57.272C57.0575 57.452 57.4115 57.542 57.8675 57.542ZM64.8261 45.68H67.1301V51.152H67.2021C67.3701 50.612 67.6881 50.186 68.1561 49.874C68.6241 49.55 69.1701 49.388 69.7941 49.388C70.9941 49.388 71.9061 49.814 72.5301 50.666C73.1661 51.506 73.4841 52.712 73.4841 54.284C73.4841 55.868 73.1661 57.086 72.5301 57.938C71.9061 58.79 70.9941 59.216 69.7941 59.216C69.1701 59.216 68.6241 59.054 68.1561 58.73C67.7001 58.406 67.3821 57.974 67.2021 57.434H67.1301V59H64.8261V45.68ZM69.0561 57.308C69.6561 57.308 70.1421 57.11 70.5141 56.714C70.8861 56.318 71.0721 55.784 71.0721 55.112V53.492C71.0721 52.82 70.8861 52.286 70.5141 51.89C70.1421 51.482 69.6561 51.278 69.0561 51.278C68.5041 51.278 68.0421 51.416 67.6701 51.692C67.3101 51.968 67.1301 52.334 67.1301 52.79V55.778C67.1301 56.27 67.3101 56.648 67.6701 56.912C68.0421 57.176 68.5041 57.308 69.0561 57.308Z" fill="#091637"/>
</svg>
